<?xml version="1.0" encoding="utf-8"?>
<!-- Generator: Adobe Illustrator 16.0.0, SVG Export Plug-In . SVG Version: 6.00 Build 0)  -->
<!DOCTYPE svg PUBLIC "-//W3C//DTD SVG 1.1//EN" "http://www.w3.org/Graphics/SVG/1.1/DTD/svg11.dtd">
<svg version="1.1" id="Layer_1" xmlns="http://www.w3.org/2000/svg" x="0px" y="0px" width="384px"
    height="45px" viewBox="0 0 384 45" enable-background="new 0 0 384 45" xml:space="preserve">
<g>
	<path fill="#231F20" d="M15.271,41.089c-1.525,0-2.978-0.226-4.372-0.653c-1.394-0.431-2.669-1.076-3.828-1.937
		c-1.16-0.866-2.171-1.916-3.027-3.152C3.177,34.1,2.5,32.647,2,30.998l6.315-2.486c0.462,1.791,1.273,3.271,2.431,4.445
		c1.159,1.179,2.685,1.77,4.57,1.77c0.702,0,1.368-0.093,2.016-0.279c0.648-0.178,1.226-0.439,1.739-0.787
		c0.513-0.354,0.918-0.796,1.214-1.322c0.303-0.534,0.453-1.139,0.453-1.838c0-0.665-0.119-1.259-0.349-1.794
		c-0.233-0.526-0.62-1.023-1.166-1.489c-0.547-0.462-1.265-0.908-2.14-1.34c-0.876-0.43-1.963-0.882-3.255-1.345l-2.185-0.792
		c-0.964-0.329-1.933-0.776-2.907-1.342c-0.978-0.562-1.865-1.239-2.657-2.036c-0.798-0.794-1.452-1.729-1.968-2.81
		c-0.511-1.074-0.771-2.292-0.771-3.652c0-1.388,0.272-2.687,0.82-3.899C4.707,8.79,5.484,7.73,6.499,6.822
		c1.006-0.911,2.218-1.624,3.63-2.14c1.403-0.513,2.971-0.769,4.695-0.769c1.786,0,3.337,0.24,4.645,0.718
		c1.308,0.479,2.42,1.094,3.327,1.839c0.915,0.744,1.65,1.564,2.213,2.463c0.563,0.895,0.98,1.736,1.244,2.536l-5.917,2.48
		c-0.328-0.996-0.933-1.89-1.81-2.682c-0.883-0.793-2.08-1.193-3.603-1.193c-1.46,0-2.668,0.34-3.628,1.019
		c-0.964,0.679-1.442,1.569-1.442,2.658c0,1.06,0.463,1.965,1.39,2.71c0.927,0.744,2.406,1.467,4.426,2.158l2.239,0.747
		c1.417,0.5,2.718,1.067,3.895,1.719c1.178,0.646,2.189,1.412,3.032,2.306c0.843,0.893,1.491,1.911,1.938,3.056
		c0.446,1.147,0.671,2.463,0.671,3.955c0,1.853-0.375,3.451-1.118,4.797c-0.744,1.339-1.697,2.443-2.858,3.303
		s-2.464,1.505-3.927,1.937C18.085,40.863,16.661,41.089,15.271,41.089z"/>
	<path fill="#231F20" d="M64.07,34.572c-1.754,2.124-3.826,3.73-6.209,4.84c-2.389,1.116-5.052,1.665-8.004,1.665
		c-2.652,0-5.111-0.48-7.379-1.437c-2.267-0.962-4.233-2.272-5.887-3.923c-1.654-1.664-2.966-3.621-3.926-5.896
		c-0.959-2.263-1.438-4.706-1.438-7.328c0-2.617,0.479-5.063,1.438-7.327c0.959-2.267,2.271-4.236,3.926-5.891
		c1.655-1.651,3.621-2.964,5.887-3.923c2.268-0.961,4.727-1.44,7.379-1.44c2.851,0,5.36,0.496,7.527,1.49
		c2.171,0.99,4.105,2.435,5.796,4.321l-4.727,4.574c-1.059-1.229-2.276-2.206-3.648-2.933c-1.377-0.73-3.003-1.095-4.896-1.095
		c-1.654,0-3.209,0.291-4.671,0.868c-1.458,0.581-2.723,1.4-3.803,2.462c-1.075,1.063-1.929,2.347-2.558,3.852
		c-0.631,1.51-0.947,3.191-0.947,5.043c0,1.856,0.316,3.54,0.947,5.045c0.629,1.503,1.483,2.794,2.558,3.85
		c1.08,1.066,2.345,1.88,3.803,2.462c1.461,0.579,3.018,0.875,4.671,0.875c1.988,0,3.751-0.414,5.292-1.226
		c1.542-0.812,2.906-1.964,4.104-3.45L64.07,34.572z"/>
	<path fill="#231F20" d="M69.435,4.702h6.71V18.92h14.955V4.702h6.706v35.587h-6.706V25.281H76.146v15.008h-6.71V4.702L69.435,4.702
		z"/>
	<path fill="#231F20" d="M111.675,11.067v8.247h14.262v6.357h-14.262v8.255h15.854v6.362h-22.56V4.702h22.56v6.365H111.675z"/>
	<path fill="#231F20" d="M133.685,4.702h6.61l10.883,18.834h0.397l10.885-18.834h6.658v35.587h-6.658V22.743l0.395-5.961h-0.395
		l-9.044,15.953h-4.026l-9.094-15.953h-0.401l0.401,5.961v17.543h-6.611V4.702L133.685,4.702z"/>
	<path fill="#231F20" d="M242.908,34.572c-1.764,2.124-3.83,3.73-6.218,4.84c-2.387,1.116-5.054,1.665-7.997,1.665
		c-2.653,0-5.107-0.48-7.379-1.437c-2.278-0.962-4.23-2.272-5.892-3.923c-1.66-1.664-2.964-3.621-3.923-5.896
		c-0.968-2.263-1.439-4.706-1.439-7.328c0-2.617,0.479-5.063,1.439-7.327c0.959-2.267,2.265-4.236,3.923-5.891
		c1.661-1.651,3.613-2.964,5.892-3.923c2.271-0.961,4.726-1.44,7.379-1.44c2.849,0,5.36,0.496,7.531,1.49
		c2.167,0.99,4.099,2.435,5.793,4.321l-4.726,4.574c-1.062-1.229-2.281-2.206-3.655-2.933c-1.373-0.73-3.003-1.095-4.891-1.095
		c-1.665,0-3.217,0.291-4.684,0.868c-1.456,0.581-2.719,1.4-3.798,2.462c-1.075,1.063-1.93,2.347-2.557,3.852
		c-0.63,1.51-0.945,3.191-0.945,5.043c0,1.856,0.316,3.54,0.945,5.045c0.628,1.503,1.483,2.794,2.557,3.85
		c1.079,1.066,2.348,1.88,3.798,2.462c1.463,0.579,3.019,0.875,4.684,0.875c1.979,0,3.746-0.414,5.289-1.226
		c1.538-0.812,2.907-1.964,4.099-3.45L242.908,34.572z"/>
	<path fill="#231F20" d="M264.62,41.089c-2.648,0-5.111-0.487-7.379-1.445c-2.275-0.962-4.234-2.277-5.887-3.954
		c-1.663-1.673-2.956-3.641-3.905-5.906c-0.947-2.269-1.421-4.701-1.421-7.288c0-2.583,0.474-5.014,1.421-7.279
		c0.946-2.266,2.242-4.241,3.905-5.913c1.652-1.67,3.611-2.986,5.887-3.951c2.268-0.961,4.73-1.44,7.379-1.44
		c2.656,0,5.111,0.479,7.38,1.44c2.272,0.965,4.235,2.281,5.889,3.951c1.655,1.672,2.958,3.647,3.907,5.913
		c0.946,2.271,1.417,4.696,1.417,7.279c0,2.587-0.471,5.02-1.417,7.288c-0.949,2.266-2.252,4.233-3.907,5.906
		c-1.653,1.677-3.616,2.992-5.889,3.954C269.731,40.599,267.276,41.089,264.62,41.089z M264.62,34.727
		c1.655,0,3.208-0.305,4.649-0.896c1.443-0.597,2.696-1.422,3.77-2.489c1.082-1.057,1.924-2.34,2.541-3.852
		c0.605-1.511,0.915-3.171,0.915-4.994c0-1.819-0.31-3.485-0.915-4.991c-0.617-1.508-1.459-2.792-2.541-3.854
		c-1.073-1.06-2.326-1.889-3.77-2.481c-1.439-0.601-2.994-0.898-4.649-0.898s-3.204,0.303-4.646,0.898
		c-1.438,0.593-2.701,1.422-3.774,2.481c-1.08,1.062-1.922,2.346-2.538,3.854c-0.609,1.506-0.92,3.172-0.92,4.991
		c0,1.823,0.311,3.483,0.92,4.994c0.616,1.512,1.458,2.795,2.538,3.852c1.073,1.067,2.337,1.891,3.774,2.489
		C261.416,34.422,262.97,34.727,264.62,34.727z"/>
	<path fill="#231F20" d="M288.623,4.702h6.708v29.225h15.059v6.362h-21.767V4.702z"/>
	<path fill="#231F20" d="M331.262,41.089c-2.652,0-5.111-0.487-7.385-1.445c-2.268-0.962-4.229-2.277-5.884-3.954
		c-1.662-1.673-2.958-3.641-3.909-5.906c-0.944-2.269-1.412-4.701-1.412-7.288c0-2.583,0.468-5.014,1.412-7.279
		c0.948-2.266,2.244-4.241,3.909-5.913c1.655-1.67,3.616-2.986,5.884-3.951c2.273-0.961,4.73-1.44,7.385-1.44
		c2.648,0,5.111,0.479,7.379,1.44c2.271,0.965,4.225,2.281,5.89,3.951c1.66,1.672,2.958,3.647,3.907,5.913
		c0.943,2.271,1.416,4.696,1.416,7.279c0,2.587-0.473,5.02-1.416,7.288c-0.949,2.266-2.247,4.233-3.907,5.906
		c-1.665,1.677-3.619,2.992-5.89,3.954C336.373,40.599,333.905,41.089,331.262,41.089z M331.262,34.727
		c1.655,0,3.204-0.305,4.646-0.896c1.435-0.597,2.696-1.422,3.778-2.489c1.067-1.057,1.913-2.34,2.529-3.852
		c0.616-1.511,0.917-3.171,0.917-4.994c0-1.819-0.301-3.485-0.917-4.991c-0.616-1.508-1.462-2.792-2.529-3.854
		c-1.082-1.06-2.346-1.889-3.778-2.481c-1.438-0.601-2.99-0.898-4.646-0.898c-1.665,0-3.208,0.303-4.646,0.898
		c-1.442,0.593-2.705,1.422-3.781,2.481c-1.079,1.062-1.914,2.346-2.526,3.854c-0.614,1.506-0.925,3.172-0.925,4.991
		c0,1.823,0.311,3.483,0.925,4.994c0.612,1.512,1.447,2.795,2.526,3.852c1.076,1.067,2.332,1.891,3.781,2.489
		C328.053,34.422,329.597,34.727,331.262,34.727z"/>
	<path fill="#231F20" d="M355.263,4.702h12.97c1.791,0,3.411,0.283,4.868,0.846c1.459,0.566,2.708,1.345,3.753,2.341
		c1.045,0.995,1.848,2.176,2.414,3.554c0.565,1.374,0.838,2.873,0.838,4.496c0,1.195-0.193,2.312-0.589,3.353
		c-0.397,1.048-0.941,1.993-1.642,2.833c-0.697,0.847-1.504,1.592-2.438,2.239c-0.928,0.647-1.905,1.152-2.932,1.514l-0.049,0.346
		L382,39.89v0.406h-7.703l-9.193-13.375h-3.131v13.373h-6.705V4.702H355.263z M368.181,20.755c1.523,0,2.771-0.461,3.751-1.39
		c0.979-0.926,1.465-2.106,1.465-3.528c0-0.628-0.104-1.238-0.317-1.842c-0.22-0.592-0.542-1.118-0.967-1.585
		c-0.434-0.464-0.968-0.834-1.621-1.119c-0.646-0.285-1.386-0.422-2.204-0.422h-6.317v9.886H368.181L368.181,20.755z"/>
	<g>
		<rect x="174.9" y="4.715" fill="#E866A5" width="29.227" height="7.079"/>
		<rect x="174.9" y="33.04" fill="#36CE9F" width="29.227" height="7.083"/>
		<rect x="174.9" y="18.873" fill="#8667E5" width="29.227" height="7.091"/>
	</g>
</g>
</svg>
